# xmcd
# 
# Track frame offsets:
#     150
#     21140
#     42245
# 
# Disc length: 846
# 
# Revision: 2
# Processed by: cddbd v1.5.2PL0 Copyright (c) Steve Scherf et al.
# Submitted via: fre:ac v1.0.31
# 
DISCID=1b034c03
DTITLE=Tomoe Shinohara - I wanna say to...
DYEAR=0
DGENRE=Rock
TTITLE0=I wanna say to....
TTITLE1=fare well
TTITLE2=I wanna say to... e-mix
EXTD=
EXTT0=
EXTT1=
EXTT2=
PLAYORDER=
